<?xml version="1.0" encoding="utf-8"?>
<!-- Generator: Adobe Illustrator 22.1.0, SVG Export Plug-In . SVG Version: 6.00 Build 0)  -->
<svg version="1.1" id="Calque_1" xmlns="http://www.w3.org/2000/svg" xmlns:xlink="http://www.w3.org/1999/xlink" x="0px" y="0px"
	 viewBox="0 0 100 100" style="enable-background:new 0 0 100 100;" xml:space="preserve">
<style type="text/css">
	.st0{fill:none;}
</style>
<g>
	<g>
		<path class="st0" d="M46.7,43.5c0.8,1.7,1.5,3.1,2.2,4.4c0.4,0.7,0.8,1.4,1.2,2l0.2,0.3c0.1,0.2,0.3,0.4,0.4,0.6
			c0.1,0.1,0.2,0.2,0.3,0.3c0.2-0.1,0.3-0.3,0.5-0.6c0.4-0.5,0.8-1.1,1.3-1.9c0.9-1.5,1.7-3,2.3-4.4c1.4-2.9,2.7-6,4-9.2
			c2.2-5.4,4.4-11.2,6.6-17.6c-0.9-0.4-1.8-0.7-2.7-1.1c-0.5-0.2-1-0.3-1.5-0.5c-0.9-0.3-1.8-0.6-2.6-0.8c-0.4-0.1-0.8-0.2-1.2-0.3
			c-1-0.2-1.9-0.5-2.9-0.6c-0.3,0-0.6-0.1-0.9-0.1c-0.4-0.1-0.9-0.1-1.3-0.2l-2.2-0.2c-2.9-0.1-5.7,0.1-8.3,0.7
			c-2.5,0.6-4.5,1.4-6.2,2.4c2.3,6.4,4.5,12.2,6.6,17.4C44.2,38,45.4,40.9,46.7,43.5z"/>
		<path class="st0" d="M30.8,51.9c2.5,1,3.5,0.7,3.7,0.6c1.2-0.6-2-7.2-3.8-10.8c-2.6-5.4-5.8-11.9-6.9-18.1
			c-3.5,1.8-9.7,6.2-9.9,14.7C14.8,40.4,24,49.1,30.8,51.9z"/>
		<path class="st0" d="M76.5,23.6c-1,6.2-4.2,12.7-6.9,18.1c-1.7,3.5-5,10.1-3.8,10.8c0.2,0.1,1.2,0.4,3.7-0.6
			c6.8-2.8,15.9-11.4,16.8-13.5c0,0,0,0,0,0C86.3,29.9,80,25.4,76.5,23.6z"/>
		<path class="st0" d="M14.1,74c-0.5,0.2-0.8,0.6-0.9,1.3c-0.2,1.2,0.3,2.9,1.7,3.6c0.6,0.3,4.1,1.7,24.7,6.1
			c7,1.5,14.2,1.6,21.2,0.3c18.8-3.4,23.3-5.2,24.4-5.9c1-0.6,1.5-1.2,1.7-2.1c0.3-1.1-0.2-2.4-0.6-3.3C40,77.4,17.4,74.5,14.1,74z"
			/>
		<path class="st0" d="M83.6,47.6c-3.2,2.8-6.3,5.1-9.4,6.8c-1.7,0.9-3.6,1.9-5.9,2.3c-0.5,0.1-1,0.2-1.7,0.2
			c-0.7,0-1.6-0.1-2.4-0.5c-0.4-0.1-0.7-0.4-0.9-0.5l-0.1-0.1c-0.2-0.1-0.3-0.2-0.4-0.3l-0.1-0.1c-0.2-0.2-0.5-0.5-0.7-0.9
			c-0.5-0.8-0.6-1.7-0.6-2.4c0-1.4,0.3-2.6,0.6-3.5c0.3-1,0.7-2,1.1-2.8c0.7-1.7,1.6-3.4,2.5-5.2l0.2-0.5c1.6-3.1,3.2-6.2,4.5-9.4
			c1.4-3.3,2.2-6.1,2.6-8.7c-1.2-0.8-2.4-1.6-3.8-2.2c-2.1,6.1-4.2,11.6-6.3,16.8c-1.3,3.3-2.7,6.4-4.1,9.4c-0.7,1.4-1.5,3-2.5,4.7
			c-0.4,0.7-0.9,1.5-1.6,2.4c-0.4,0.4-0.7,0.9-1.3,1.3c-0.2,0.2-0.7,0.5-1.3,0.7c-0.3,0.1-0.6,0.1-0.9,0.1c-0.1,0-0.2,0-0.3,0
			c0,0-0.1,0-0.1,0c-0.2,0-0.4-0.1-0.5-0.1c-0.1,0-0.2-0.1-0.3-0.1l-0.3-0.2c-0.2-0.1-0.4-0.2-0.5-0.3c0,0-0.1-0.1-0.1-0.1l-0.3-0.2
			c-0.3-0.2-0.5-0.5-0.7-0.7c-0.2-0.3-0.5-0.6-0.7-0.9L47,52.2c0,0,0-0.1-0.1-0.1c-0.5-0.7-1-1.5-1.4-2.3c-0.8-1.3-1.5-2.8-2.4-4.7
			c-1.3-2.7-2.6-5.7-4.1-9.4c-2.1-5.1-4.2-10.7-6.4-16.9c-1.8,0.8-3.6,1.7-5.2,2.8c0.4,2.7,1.2,5.6,2.7,9c1.3,3.2,2.9,6.4,4.5,9.4
			l0.2,0.5c0.9,1.7,1.7,3.4,2.5,5.1c0.4,0.9,0.8,1.8,1.1,2.8c0.3,1,0.6,2.2,0.6,3.5c0,0.7-0.2,1.6-0.7,2.4c-0.2,0.4-0.5,0.7-0.7,0.9
			l-0.1,0.1c-0.1,0.1-0.3,0.2-0.4,0.3l-0.1,0.1c-0.2,0.1-0.5,0.4-0.9,0.5c-0.8,0.3-1.7,0.5-2.4,0.5c-0.6,0-1.2-0.1-1.6-0.2
			c-2.3-0.4-4.2-1.4-5.9-2.3c-3.1-1.8-6.2-4-9.4-6.8c-1.6-1.4-3-2.7-4.2-4.1c-0.1-0.1-0.2-0.2-0.2-0.3C8.3,55.8,8.7,68.9,9,73.1
			c0.3,0,0.5,0.1,0.8,0.1c0.7-1.6,2.1-2.8,3.9-3.1c0.2,0,0.4,0,0.6,0c0.2,0,23.5,3.6,73,0c0.7,0,1.3,0.3,1.7,0.8c0,0,0,0,0,0l0,0
			c0,0,0,0,0,0c0.1,0.2,0.7,1.1,1.1,2.2c0.3,0,0.6-0.1,0.8-0.1c0.3-4.2,0.7-17.1-3.3-29.5C86.5,44.9,85.2,46.2,83.6,47.6z"/>
		<path d="M90.4,39.7c0.1-0.3,0.2-0.6,0.2-0.9c0-0.1,0-0.2,0-0.3c0-0.3,0-0.7-0.1-1l0-0.5c-0.1-1.9-0.6-3.9-1.5-6.1
			c-0.8-1.8-1.9-3.6-3.4-5.3c-2.7-2.9-6-5.1-9.6-6.4c-0.2-0.1-0.4-0.2-0.5-0.2c0,0,0,0,0,0c0,0,0,0,0,0c0,0,0,0,0,0
			c-0.1,0-0.1,0-0.2,0c-0.1,0-0.2,0-0.2,0c0,0,0,0,0,0c-1.6-1.1-3.3-2.1-5.1-2.9c-0.2-0.5-0.5-1-1.1-1.2L68,14.3
			c-1.2-0.5-2.4-1-3.6-1.5c0,0-0.1,0-0.1,0c-0.5-0.2-1-0.3-1.5-0.5c-0.9-0.3-1.9-0.6-2.9-0.9c-0.4-0.1-0.8-0.2-1.2-0.3
			c-1.1-0.3-2.2-0.5-3.3-0.7c-0.2,0-0.5-0.1-0.7-0.1c-0.5-0.1-1-0.2-1.6-0.2L50.8,10c-3.3-0.2-6.4,0.1-9.4,0.8
			c-3.6,0.8-6.5,2.1-8.8,3.8c-0.2,0.1-0.3,0.3-0.4,0.4c-2.7,1.1-5.3,2.4-7.6,4.1c-0.1,0-0.1,0.1-0.2,0.1c-3.6,1.3-6.9,3.6-9.6,6.5
			c-1.4,1.6-2.5,3.4-3.4,5.3c-0.9,2.2-1.4,4.2-1.5,6.1l0,0.5c0,0.3-0.1,0.7-0.1,1c0,0.1,0,0.2,0,0.3c0,0.1,0,0.2,0.1,0.3
			C3.4,55.8,5.2,74.2,5.3,74.9c0.1,0.8,0.7,1.5,1.6,1.7c0.8,0.1,1.6,0.3,2.5,0.4c0.4,2.2,1.7,4.2,3.7,5.2c0.7,0.4,3,1.6,25.7,6.4
			c4,0.9,8.1,1.3,12.2,1.3c3.5,0,7-0.3,10.5-1c14.3-2.6,22.9-4.7,25.6-6.3c1.9-1.1,3.1-2.7,3.5-4.5c0.1-0.4,0.1-0.8,0.2-1.2
			c0.8-0.1,1.6-0.3,2.3-0.4c0.8-0.2,1.5-0.8,1.6-1.7C94.8,74.2,96.6,56.3,90.4,39.7z M86.4,38.4c-0.9,2.1-10,10.7-16.8,13.5
			c-2.5,1-3.5,0.7-3.7,0.6c-1.2-0.6,2-7.2,3.8-10.8c2.6-5.4,5.8-11.9,6.9-18.1C80,25.4,86.3,29.9,86.4,38.4
			C86.4,38.4,86.4,38.4,86.4,38.4z M42.3,14.5c2.6-0.6,5.4-0.8,8.3-0.7l2.2,0.2c0.4,0,0.9,0.1,1.3,0.2c0.3,0,0.5,0.1,0.9,0.1
			c0.9,0.1,1.9,0.3,2.9,0.6c0.4,0.1,0.9,0.2,1.2,0.3c0.9,0.2,1.7,0.5,2.6,0.8c0.5,0.2,1,0.3,1.5,0.5c0.9,0.4,1.8,0.7,2.7,1.1
			c-2.2,6.4-4.4,12.1-6.6,17.6c-1.3,3.2-2.6,6.3-4,9.2c-0.6,1.3-1.4,2.9-2.3,4.4c-0.5,0.8-0.9,1.4-1.3,1.9c-0.2,0.2-0.4,0.4-0.5,0.6
			c-0.1-0.1-0.2-0.2-0.3-0.3c-0.2-0.2-0.3-0.4-0.4-0.6L50.2,50c-0.4-0.6-0.8-1.3-1.2-2c-0.7-1.3-1.4-2.7-2.2-4.4
			c-1.2-2.6-2.5-5.6-4-9.2c-2.2-5.3-4.4-11-6.6-17.4C37.7,15.9,39.8,15.1,42.3,14.5z M14,38.4c0.2-8.5,6.4-12.9,9.9-14.7
			c1,6.2,4.2,12.7,6.9,18.1c1.7,3.5,5,10.1,3.8,10.8c-0.2,0.1-1.2,0.4-3.7-0.6C24,49.1,14.8,40.4,14,38.4z M87,77.4
			c-0.2,0.8-0.7,1.5-1.7,2.1c-1.1,0.6-5.6,2.4-24.4,5.9c-7.1,1.3-14.2,1.2-21.2-0.3c-20.6-4.4-24.1-5.8-24.7-6.1
			c-1.4-0.7-1.9-2.4-1.7-3.6c0.1-0.7,0.4-1.1,0.9-1.3c3.3,0.5,25.9,3.4,72.3,0C86.8,75,87.2,76.3,87,77.4z M91,73.1
			c-0.3,0-0.5,0.1-0.8,0.1c-0.5-1.2-1-2-1.1-2.2c0,0,0,0,0,0l0,0c0,0,0,0,0,0c-0.4-0.6-1.1-0.9-1.7-0.8c-49.5,3.6-72.8,0.1-73,0
			c-0.2,0-0.4,0-0.6,0c-1.8,0.3-3.1,1.4-3.9,3.1c-0.3,0-0.6-0.1-0.8-0.1c-0.3-4.2-0.7-17.3,3.4-29.8c0.1,0.1,0.2,0.2,0.2,0.3
			c1.2,1.3,2.6,2.7,4.2,4.1c3.2,2.8,6.3,5.1,9.4,6.8c1.6,0.9,3.6,1.9,5.9,2.3c0.5,0.1,1,0.2,1.6,0.2c0.7,0,1.6-0.1,2.4-0.5
			c0.4-0.1,0.7-0.4,0.9-0.5l0.1-0.1c0.2-0.1,0.3-0.2,0.4-0.3l0.1-0.1c0.2-0.2,0.5-0.5,0.7-0.9c0.5-0.8,0.6-1.7,0.7-2.4
			c0-1.3-0.3-2.5-0.6-3.5c-0.3-1-0.7-2-1.1-2.8c-0.7-1.7-1.6-3.4-2.5-5.1l-0.2-0.5c-1.6-3.1-3.2-6.2-4.5-9.4c-1.4-3.4-2.3-6.3-2.7-9
			c1.6-1.1,3.4-2,5.2-2.8c2.2,6.2,4.3,11.7,6.4,16.9c1.5,3.7,2.8,6.7,4.1,9.4c0.9,1.8,1.6,3.3,2.4,4.7c0.5,0.8,0.9,1.6,1.4,2.3
			c0,0,0,0.1,0.1,0.1l0.2,0.3c0.2,0.3,0.4,0.6,0.7,0.9c0.2,0.2,0.4,0.5,0.7,0.7l0.3,0.2c0,0,0.1,0.1,0.1,0.1
			c0.1,0.1,0.3,0.2,0.5,0.3l0.3,0.2c0.1,0,0.2,0.1,0.3,0.1c0.2,0,0.3,0.1,0.5,0.1c0,0,0.1,0,0.1,0c0.1,0,0.2,0,0.3,0
			c0.3,0,0.7,0,0.9-0.1c0.6-0.2,1.1-0.5,1.3-0.7c0.5-0.4,0.9-0.9,1.3-1.3c0.7-0.8,1.2-1.7,1.6-2.4c1-1.6,1.8-3.3,2.5-4.7
			c1.4-3,2.8-6.1,4.1-9.4c2.1-5.2,4.2-10.8,6.3-16.8c1.3,0.7,2.6,1.4,3.8,2.2c-0.4,2.6-1.2,5.4-2.6,8.7c-1.3,3.2-2.9,6.3-4.5,9.4
			l-0.2,0.5c-0.9,1.7-1.7,3.4-2.5,5.2c-0.4,0.9-0.8,1.8-1.1,2.8c-0.3,1-0.6,2.2-0.6,3.5c0,0.7,0.2,1.5,0.6,2.4
			c0.2,0.4,0.5,0.7,0.7,0.9l0.1,0.1c0.1,0.1,0.3,0.2,0.4,0.3l0.1,0.1c0.2,0.1,0.5,0.4,0.9,0.5c0.8,0.3,1.7,0.5,2.4,0.5
			c0.6,0,1.2-0.1,1.7-0.2c2.3-0.4,4.2-1.4,5.9-2.3c3.1-1.8,6.1-4,9.4-6.8c1.6-1.4,2.9-2.7,4.1-4C91.7,56,91.3,68.9,91,73.1z"/>
	</g>
</g>
</svg>
